<svg width="1440" height="820" viewBox="0 0 1440 820" fill="none" xmlns="http://www.w3.org/2000/svg">
<g clip-path="url(#clip0_)">
<circle cx="881" cy="-137" r="559" transform="rotate(-180 881 -137)" fill="url(#paint0_radial_)"/>
<circle cx="559" cy="-137" r="559" transform="rotate(-180 559 -137)" fill="url(#paint1_radial_)"/>
<rect x="541" y="140" width="358" height="540" fill="#202024"/>
<mask id="mask0_" style="mask-type:alpha" maskUnits="userSpaceOnUse" x="541" y="140" width="358" height="540">
<rect x="541" y="140" width="358" height="540" fill="#202024"/>
</mask>
<g mask="url(#mask0_)">
<path d="M899 201.492V-256.824L719.5 -360L540 -256.824V201.492L719.5 304.674L899 201.492Z" fill="url(#paint2_linear_)"/>
<g style="mix-blend-mode:luminosity" opacity="0.4">
<path d="M720.6 203.416V100.607L809.899 49.1972L899.199 100.607V203.416L809.899 254.826L720.6 203.416Z" fill="url(#paint3_linear_)"/>
<path d="M809.899 254.848V152.038L720.6 100.629L631.3 152.038V254.848L720.6 306.258L809.899 254.848Z" fill="url(#paint4_linear_)"/>
</g>
</g>
<rect x="680" y="156" width="80" height="8" fill="#121214"/>
<rect x="688" width="64" height="158" fill="url(#paint5_linear_)"/>
</g>
<defs>
<radialGradient id="paint0_radial_" cx="0" cy="0" r="1" gradientUnits="userSpaceOnUse" gradientTransform="translate(881 -137) rotate(90) scale(559)">
<stop stop-color="#96FD86"/>
<stop offset="1" stop-color="#121214" stop-opacity="0"/>
</radialGradient>
<radialGradient id="paint1_radial_" cx="0" cy="0" r="1" gradientUnits="userSpaceOnUse" gradientTransform="translate(559 -137) rotate(90) scale(559)">
<stop stop-color="#299218"/>
<stop offset="1" stop-color="#121214" stop-opacity="0"/>
</radialGradient>
<linearGradient id="paint2_linear_" x1="540" y1="-344.234" x2="979.976" y2="-283.679" gradientUnits="userSpaceOnUse">
<stop stop-color="#0CBC13"/>
<stop offset="1" stop-color="#E7FC64"/>
</linearGradient>
<linearGradient id="paint3_linear_" x1="899.199" y1="209.194" x2="720.875" y2="101.586" gradientUnits="userSpaceOnUse">
<stop stop-color="#95E687" stop-opacity="0"/>
<stop offset="1" stop-color="#75F482"/>
</linearGradient>
<linearGradient id="paint4_linear_" x1="720.6" y1="105.357" x2="809.515" y2="257.094" gradientUnits="userSpaceOnUse">
<stop stop-color="#0AEF65"/>
<stop offset="1" stop-color="#7CF244" stop-opacity="0"/>
</linearGradient>
<linearGradient id="paint5_linear_" x1="649.5" y1="4.93019e-08" x2="782" y2="158" gradientUnits="userSpaceOnUse">
<stop stop-color="#00FF19"/>
<stop offset="1" stop-color="#FFCD1E"/>
</linearGradient>
<clipPath id="clip0_">
<rect width="1440" height="820" fill="white"/>
</clipPath>
</defs>
</svg>
